PathFileType	3	(X/Y/Z)	D:\Jess\Healthy\Labelled\HA23\20251031\SRRun01.trc
DataRate	CameraRate	NumFrames	NumMarkers	Units	OrigDataRate	OrigDataStartFrame	OrigNumFrames
250.0	250.0	6	37	mm	250.0	35937	2501
Frame#	Time	C7			T10			CLAV			LSHO			RSHO			LASIS			RASIS			LPSIS			RPSIS			LILCR			RILCR			LGTR			LTHI			LLTHI			LLEP			LMEP			LPSH			LLSH			LDSH			LLMAL			LMMAL			LTOE			L5TH			LHEE			RGTR			RTHI			RLTHI			RLEP			RMEP			RPSH			RLSH			RDSH			RLMAL			RMMAL			RTOE			R5TH			RHEE			
		X1	Y1	Z1	X2	Y2	Z2	X3	Y3	Z3	X4	Y4	Z4	X5	Y5	Z5	X6	Y6	Z6	X7	Y7	Z7	X8	Y8	Z8	X9	Y9	Z9	X10	Y10	Z10	X11	Y11	Z11	X12	Y12	Z12	X13	Y13	Z13	X14	Y14	Z14	X15	Y15	Z15	X16	Y16	Z16	X17	Y17	Z17	X18	Y18	Z18	X19	Y19	Z19	X20	Y20	Z20	X21	Y21	Z21	X22	Y22	Z22	X23	Y23	Z23	X24	Y24	Z24	X25	Y25	Z25	X26	Y26	Z26	X27	Y27	Z27	X28	Y28	Z28	X29	Y29	Z29	X30	Y30	Z30	X31	Y31	Z31	X32	Y32	Z32	X33	Y33	Z33	X34	Y34	Z34	X35	Y35	Z35	X36	Y36	Z36	X37	Y37	Z37	

938	143.744	866.8087876834962	1405.236986337584	-1148.527078035289	867.6748223739296	1170.533820529454	-1086.821828685104	844.6010850330484	1301.026246028715	-1276.312952586028	710.160830172049	1393.928270760247	-1161.685157553092	1013.388096692359	1365.818285205828	-1212.197002202984	695.2581502091764	946.4600543571025	-1206.623338578989	961.5002842435238	911.8228299962415	-1256.461759547054	862.0484349229022	961.3728125929262	-1042.016968694601	893.0503141137683	957.5160255602086	-1048.759277111867	681.7410969187109	1011.043815573106	-1138.452315355884	1017.80939448131	973.6941815712042	-1201.112736133706	649.1991883066245	863.6467763561091	-1125.128967056944	737.0719222516593	733.1424245231691	-1316.330595519029	688.8418243653808	620.324450021983	-1238.501854757532	724.2652900521127	482.3399686759068	-1272.181081496097	nan	nan	nan	793.4328053454177	408.0865502676959	-1311.916109766369	738.8309801511318	298.5391596584354	-1216.576276646143	806.8327968539238	223.2249362637992	-1252.988644596151	790.1265862563231	100.6919302818986	-1170.472653469256	nan	nan	nan	814.8756181586862	64.83714818013166	-1309.190620174272	770.107591925043	36.15798293510662	-1281.458452428268	826.4735711375595	66.36428161958905	-1096.299010669998	1021.646639517002	827.1021438768213	-1222.818173261586	938.8288470172719	654.174355396573	-1285.465662822189	1014.83358144695	577.5382001265453	-1184.977668705775	1000.086331023461	448.8471642876925	-1156.743488629803	nan	nan	nan	958.4164631936668	377.6823621871328	-1126.390470960112	1012.429446294885	425.3942048726325	-999.0048143873431	955.493178401434	358.4837789699834	-931.9060851707729	992.8498328391344	387.0008638416733	-786.8269542017333	nan	nan	nan	974.0842721341839	251.6576046481764	-736.655624878975	1011.722771596001	286.0297311331162	-705.5555198808053	945.3683056558881	459.9986569761378	-761.1856272066811	
939	143.748	865.8608866980779	1404.240986749752	-1148.886730797929	866.7123363373615	1169.275417221269	-1086.147757074606	845.2433075852034	1298.229072444393	-1276.543636471949	709.1344036809247	1391.919575047621	-1163.3333671867	1013.114171653309	1364.518034662509	-1210.683034971525	694.5527241912237	945.6182381217075	-1205.407827411365	960.9831757083496	908.7685657871423	-1255.328432360544	863.0020292986217	960.2866099628322	-1041.086988093046	893.9102303821738	956.2799646532611	-1047.824750508506	681.6384454553747	1010.354617366024	-1136.414409658973	1017.688222163677	971.1932059963553	-1200.148690264969	649.2651481378157	862.9705275562267	-1123.24348530161	736.5142838311306	731.988697415279	-1314.496119294381	688.6117366841407	618.8594441008928	-1236.658996207831	724.2192964211935	480.7623091478908	-1269.83860062195	nan	nan	nan	793.7077925580372	406.2414645777457	-1308.017106391739	738.8146573075853	297.7673486952771	-1211.593716210982	807.3011337200655	222.1040742489193	-1245.981058705244	790.2171519664082	101.079783707744	-1161.214055797915	nan	nan	nan	814.9343753997651	64.83814086596286	-1299.405827484979	770.0695282133086	36.33633620631355	-1271.625230872022	826.4869768156937	66.83567965652524	-1086.554793489446	1021.143804530886	825.1613110478235	-1222.748037260473	938.7019407633263	653.7997335860671	-1287.714978420391	1015.846345345385	576.0125926204262	-1188.959783084098	1001.33439411296	447.3470698204864	-1163.831961519355	nan	nan	nan	959.9461186407251	376.3670516839603	-1133.798282693039	1013.006189908585	425.1917146960088	-1006.260771159881	956.4126606109285	357.9076185916479	-939.0430611030721	992.5770359914785	387.9820661746104	-793.9251965706131	nan	nan	nan	975.9410261226211	252.128622587265	-744.4322491365829	1013.270940726757	286.9823041702638	-713.4141890967428	943.9560930651019	460.2633220963866	-767.9010632435646	
940	143.752	864.9113629377958	1403.388771628976	-1149.242222048493	865.7638462742319	1168.23324701587	-1085.467092308198	845.9381095419628	1295.677480950366	-1276.733143746135	708.1770826115151	1390.071490899562	-1165.097345745498	1012.800384879926	1363.437372174842	-1209.119464929712	693.9406429164227	944.8576852114087	-1204.299495535341	960.5179831033108	906.0213422730455	-1254.136346496183	863.7784291116559	959.4059988424448	-1040.17076727276	894.6161206877466	955.2997267195461	-1046.895302899251	681.4881519106747	1009.725925211685	-1134.490603969503	1017.543109541267	969.1595085387555	-1199.153889789986	649.3105007381705	862.2788722479908	-1121.488439989373	736.0286655584365	730.5545412789543	-1312.528627989501	688.4706434413534	617.2342359331877	-1234.397262940769	724.1504766059732	478.9899261997675	-1266.808807428583	nan	nan	nan	793.7864057276165	404.1884351844163	-1303.658371331133	738.8020514769007	296.7811346179468	-1206.160849758737	807.6452202237481	220.855498302372	-1238.717080434968	790.2339945754698	101.3645923575377	-1151.877353853637	nan	nan	nan	814.9559320435831	64.82202134158373	-1289.589425011056	770.0249088360672	36.44789788655483	-1261.771018996544	826.4759768862494	67.22147641923962	-1076.777024854901	1020.706399807915	823.504261791287	-1222.493542484339	938.5209160365324	653.6960420075829	-1289.96537730359	1016.797106959022	574.7658547363687	-1193.021142961666	1002.461597047439	446.0402095190057	-1171.075898118708	nan	nan	nan	961.2987456075045	375.2927738134119	-1141.380691671117	1013.49822271145	425.0034172592863	-1013.653446227845	957.2237383588441	357.2818111329946	-946.3787958606582	992.2735932706046	388.512938768581	-801.2141880567605	nan	nan	nan	977.5345057186669	252.1068154664217	-752.6667203739264	1014.645565517569	287.2860322500186	-721.693682695452	942.7063307805219	460.079726686334	-774.587507771591	
941	143.756	863.9576318834316	1402.673473318168	-1149.573067039998	864.8194592774508	1167.397936518763	-1084.788833789103	846.682557090561	1293.391067783877	-1276.879444118724	707.2890654083309	1388.395202221515	-1166.972089033843	1012.451569766715	1362.57760570735	-1207.499667281594	693.4285649513951	944.161113640181	-1203.312522421132	960.1197220487612	903.6167240906854	-1252.892973532457	864.3471886553183	958.7192247245661	-1039.269342451955	895.1378552223127	954.5581059617036	-1045.967797126824	681.286824599112	1009.137110564847	-1132.713906075264	1017.383927683297	967.5950371907307	-1198.124588853675	649.323146003363	861.5745498313695	-1119.891215538681	735.6102442367766	728.8320429174257	-1310.444875138734	688.4185823927373	615.4727132798591	-1231.709554527476	724.0610183747556	477.0461688435826	-1263.089851508676	nan	nan	nan	793.6743274750319	401.9441589631774	-1298.848205509294	738.7991362561215	295.5988262325051	-1200.279784806066	807.879550158436	219.4916109189305	-1231.202852656215	790.1904335202444	101.550353337017	-1142.459745588197	nan	nan	nan	814.9517163390741	64.77612631410182	-1279.737893115867	769.9784169126948	36.49071062174202	-1251.888395300475	826.4471089504045	67.52721069884694	-1066.958667591983	1020.346669312404	822.137439052679	-1222.037749756685	938.3147496631883	653.8674653224489	-1292.21330572088	1017.685378851448	573.8074623361551	-1197.151718216189	1003.459078245811	444.9407259834207	-1178.454407294992	nan	nan	nan	962.4646997632555	374.4679904227309	-1149.121467327763	1013.899636396883	424.8369221134203	-1021.164685709341	957.9216099036987	356.613444063985	-953.8978729298407	991.9482334673347	388.5814513249354	-808.6722674711127	nan	nan	nan	978.8546142058174	251.582906632973	-761.3353284360468	1015.83853751951	286.9292237489176	-730.3652164122983	941.6342922161651	459.4417533236191	-781.2309752521213	
942	143.76	862.9973229041125	1402.088762669172	-1149.859677615803	863.8684411375633	1166.758747798263	-1084.12277784178	847.4737730460533	1291.387461387594	-1276.981718729266	706.4697891480423	1386.902023265587	-1168.949063465669	1012.073710541238	1361.938861721789	-1205.817146855539	693.0202847801582	943.5133910244033	-1202.458274430792	959.802079461232	901.5842854009047	-1251.605611285382	864.685466436251	958.2154857358813	-1038.38462924296	895.4518033535275	954.0375175869738	-1045.040435592103	681.0331052907336	1008.573030491457	-1131.114909604893	1017.220696002711	966.4886870829025	-1197.05543047448	649.2930045444696	860.8662629781209	-1118.473276598492	735.2525288459129	726.8231630989334	-1308.258989792458	688.4519385727377	613.6074699375126	-1228.600275632818	723.9543924522915	474.9646287966062	-1258.699659024614	nan	nan	nan	793.3870381449389	399.537408827188	-1293.601984645291	738.8106099863973	294.2489264591658	-1193.963367684746	808.0204681820202	218.0331922763969	-1223.448213282992	790.0995347080323	101.6467333407556	-1132.960405160987	nan	nan	nan	814.9321318050731	64.69322620283801	-1269.848613347478	769.9340523245546	36.4678993902073	-1241.971510903863	826.4059478407158	67.76201939818571	-1057.094717756009	1020.075550516354	821.0631099283767	-1221.369687654852	938.1119610019301	654.3183507082874	-1294.454788404247	1018.51064196461	573.1457551930305	-1201.338703820065	1004.319786530651	444.0646807764549	-1185.942507451628	nan	nan	nan	963.4370811586801	373.9001971317396	-1157.002180039644	1014.205063843705	424.6970611456571	-1028.774468152449	958.5024869621064	355.9072483604891	-961.5842030565159	991.6081068818718	388.1786382671027	-816.2776820767707	nan	nan	nan	979.8958542324924	250.5520375150517	-770.4152747236153	1016.843399069712	285.9064492343448	-739.4009505221874	940.7483931332495	458.3429472644032	-787.8196028906041	
943	143.764	862.0284534471307	1401.629141209093	-1150.084304518473	862.8996925295451	1166.304288629782	-1083.479172015945	848.3090272675316	1289.681894758168	-1277.040283165769	705.7181538180384	1385.603142035394	-1171.016496658593	1011.673466576189	1361.520194757011	-1204.065968577433	692.7166904516127	942.9022067301864	-1201.745263068651	959.5770279317501	899.9465236009045	-1250.281317732963	864.7787721893773	957.8853576292798	-1037.519473075496	895.5417135883279	953.7208850292637	-1044.11306857905	680.7276556689452	1008.024733126624	-1129.72111523466	1017.063073315259	965.8174264367722	-1195.939467449132	649.2125892785682	860.1678051988438	-1117.249566677144	734.9483490033796	724.5402897430831	-1305.982141238346	688.5639945145682	611.6780647427222	-1225.08527054364	723.8352165308983	472.7871013403769	-1253.674434533119	nan	nan	nan	792.9489074381365	397.0072357466197	-1287.941181544851	738.8397941644489	292.7685260642973	-1187.233936817328	808.0853793368447	216.5079665639737	-1215.466228283603	789.9736531672585	101.6681957246979	-1123.380703150696	nan	nan	nan	814.9062514059775	64.57072018175622	-1259.920243805597	769.8950503342531	36.38666282863485	-1232.016359908939	826.3569876086924	67.93837723693979	-1047.182523830443	1019.902228040568	820.2797571586784	-1220.484972287694	937.9393479562837	655.0532451747664	-1296.685357048833	1019.272011743627	572.7877477195683	-1205.566690012971	1005.03850855644	443.4296870218799	-1193.511711545925	nan	nan	nan	964.2117794459823	373.595849592904	-1165.002545427475	1014.409898947978	424.5855635127077	-1036.461131467376	958.9635767749186	355.1652338288371	-969.4213228440379	991.2585174324208	387.2987222215057	-824.009150705108	nan	nan	nan	980.6571571771354	249.0140817540457	-779.8852245167632	1017.655324368319	284.2186962509805	-748.774788944739	940.0502167596071	456.7765511350925	-794.3438265145453	
